<svg width="170" height="36" viewBox="0 0 170 36" fill="none" xmlns="http://www.w3.org/2000/svg">
    <g clip-path="url(#clip0_148_62660)">
        <path
            d="M15.3619 0.111722V23.0708C15.3619 24.7839 15.0268 26.4039 14.3564 27.9308C13.7233 29.4204 12.8482 30.7239 11.7309 31.8411C10.6137 32.9583 9.29164 33.8521 7.76476 34.5225C6.27512 35.1556 4.67375 35.4721 2.96066 35.4721C1.91791 35.4721 0.931026 35.3604 0 35.1369V28.9922C0.893785 29.4391 1.88067 29.6625 2.96066 29.6625C3.85445 29.6625 4.69237 29.4949 5.47443 29.1597C6.29374 28.7873 7.00132 28.3032 7.59717 27.7073C8.19303 27.1115 8.65855 26.4225 8.99371 25.6405C9.36613 24.8212 9.55233 23.9646 9.55233 23.0708V0.111722H15.3619Z"
            fill="#FDFDFD" />
        <path
            d="M32.178 8.09993C34.0401 8.09993 35.7904 8.45372 37.429 9.1613C39.1049 9.86888 40.5573 10.8371 41.7862 12.0661C43.0152 13.2951 43.9834 14.7475 44.691 16.4233C45.3986 18.0619 45.7524 19.8122 45.7524 21.6743C45.7524 23.5363 45.3986 25.3053 44.691 26.9811C43.9834 28.6197 43.0152 30.0535 41.7862 31.2825C40.5573 32.5114 39.1049 33.4797 37.429 34.1873C35.7904 34.8949 34.0401 35.2487 32.178 35.2487C30.316 35.2487 28.547 34.8949 26.8712 34.1873C25.2326 33.4797 23.7988 32.5114 22.5698 31.2825C21.3409 30.0535 20.3726 28.6197 19.665 26.9811C18.9574 25.3053 18.6037 23.5363 18.6037 21.6743C18.6037 19.8122 18.9574 18.0619 19.665 16.4233C20.3726 14.7475 21.3409 13.2951 22.5698 12.0661C23.7988 10.8371 25.2326 9.86888 26.8712 9.1613C28.547 8.45372 30.316 8.09993 32.178 8.09993ZM24.3015 21.7302C24.3015 22.8101 24.5064 23.8343 24.916 24.8025C25.3257 25.7708 25.8843 26.6087 26.5919 27.3163C27.2994 28.0239 28.1374 28.5825 29.1056 28.9922C30.0739 29.4018 31.098 29.6066 32.178 29.6066C33.258 29.6066 34.2821 29.4018 35.2504 28.9922C36.2187 28.5825 37.0566 28.0239 37.7642 27.3163C38.4718 26.6087 39.0304 25.7708 39.44 24.8025C39.8497 23.8343 40.0545 22.8101 40.0545 21.7302C40.0545 20.6502 39.8497 19.626 39.44 18.6578C39.0304 17.6895 38.4718 16.8516 37.7642 16.144C37.0566 15.4364 36.2187 14.8778 35.2504 14.4681C34.2821 14.0585 33.258 13.8537 32.178 13.8537C31.098 13.8537 30.0739 14.0585 29.1056 14.4681C28.1374 14.8778 27.2994 15.4364 26.5919 16.144C25.8843 16.8516 25.3257 17.6895 24.916 18.6578C24.5064 19.626 24.3015 20.6502 24.3015 21.7302Z"
            fill="#FDFDFD" />
        <path
            d="M62.5078 8.15579C64.3699 8.15579 66.1202 8.50958 67.7588 9.21716C69.4346 9.92474 70.887 10.893 72.116 12.122C73.3449 13.3509 74.3132 14.8033 75.0208 16.4792C75.7284 18.1178 76.0822 19.8681 76.0822 21.7302C76.0822 23.5922 75.7284 25.3612 75.0208 27.037C74.3132 28.6756 73.3449 30.1094 72.116 31.3383C70.887 32.5673 69.4346 33.5356 67.7588 34.2431C66.1202 34.9507 64.3699 35.3045 62.5078 35.3045C60.6457 35.3045 58.8768 34.9507 57.2009 34.2431C55.5623 33.5356 54.1286 32.5673 52.8996 31.3383C51.6707 30.1094 50.7024 28.6756 49.9948 27.037C49.2872 25.3612 48.9334 23.5922 48.9334 21.7302V0H54.6872V10.6137C55.8044 9.83164 57.0334 9.21716 58.374 8.77027C59.7147 8.32338 61.1113 8.09993 62.5637 8.09993L62.5078 8.15579ZM54.6313 21.786C54.6313 22.866 54.8361 23.8901 55.2458 24.8584C55.6554 25.8267 56.2141 26.6646 56.9216 27.3722C57.6292 28.0798 58.4671 28.6384 59.4354 29.048C60.4037 29.4577 61.4278 29.6625 62.5078 29.6625C63.5878 29.6625 64.6119 29.4577 65.5802 29.048C66.5485 28.6384 67.3864 28.0798 68.094 27.3722C68.8015 26.6646 69.3601 25.8267 69.7698 24.8584C70.1795 23.8901 70.3843 22.866 70.3843 21.786C70.3843 20.706 70.1795 19.6819 69.7698 18.7136C69.3601 17.7454 68.8015 16.9074 68.094 16.1999C67.3864 15.4923 66.5485 14.9337 65.5802 14.524C64.6119 14.1144 63.5878 13.9095 62.5078 13.9095C61.4278 13.9095 60.4037 14.1144 59.4354 14.524C58.4671 14.9337 57.6292 15.4923 56.9216 16.1999C56.2141 16.9074 55.6554 17.7454 55.2458 18.7136C54.8361 19.6819 54.6313 20.706 54.6313 21.786Z"
            fill="#FDFDFD" />
        <path
            d="M96.3569 8.54682C98.8893 9.17992 101.049 10.4275 102.837 12.2895C104.662 14.1144 105.835 16.3116 106.356 18.8812C106.431 19.3281 106.486 19.7936 106.524 20.2778C106.598 20.7246 106.635 21.1902 106.635 21.6743C106.635 22.1584 106.598 22.6426 106.524 23.1267C106.486 23.5736 106.431 24.0205 106.356 24.4674H85.6873C86.2459 25.957 87.1769 27.1673 88.4804 28.0984C89.8211 29.0294 91.3293 29.4949 93.0052 29.4949C94.1224 29.4949 95.221 29.2528 96.301 28.7687V34.8018C95.1838 35.0997 94.0665 35.2487 92.9493 35.2487C91.3107 35.2487 89.7466 34.988 88.2569 34.4666C86.8045 33.908 85.4825 33.1445 84.2908 32.1763C83.1363 31.208 82.1494 30.0722 81.3301 28.7687C80.548 27.428 79.9894 25.9943 79.6542 24.4674C79.5798 24.0205 79.5053 23.5736 79.4308 23.1267C79.3936 22.6426 79.3749 22.1584 79.3749 21.6743C79.3749 21.1902 79.3936 20.7246 79.4308 20.2778C79.5053 19.7936 79.5798 19.3281 79.6542 18.8812C79.9894 17.3543 80.548 15.9392 81.3301 14.6357C82.1494 13.2951 83.1363 12.1406 84.2908 11.1723C85.4825 10.204 86.8045 9.45923 88.2569 8.93785C89.7466 8.37924 91.3107 8.09993 92.9493 8.09993C94.0293 8.09993 95.1279 8.24889 96.2451 8.54682H96.3569ZM100.323 18.9371C99.9506 17.9688 99.4106 17.1123 98.703 16.3674C98.0327 15.6226 97.232 15.0454 96.301 14.6357C95.221 14.1516 94.1224 13.9095 93.0052 13.9095C91.3293 13.9095 89.8211 14.375 88.4804 15.3061C87.1769 16.2371 86.2459 17.4474 85.6873 18.9371H100.379H100.323Z"
            fill="#FDFDFD" />
        <path
            d="M120.654 13.8537C119.238 13.9282 118.028 14.4681 117.023 15.4737C116.054 16.4792 115.57 17.6895 115.57 19.1047V34.8576H109.761V19.1047C109.761 17.8385 109.965 16.6281 110.375 15.4737C110.785 14.3192 111.343 13.2764 112.051 12.3454C112.796 11.4144 113.652 10.6137 114.621 9.94336C115.626 9.27302 116.725 8.77027 117.916 8.4351C118.736 8.21165 119.629 8.09993 120.598 8.09993L120.654 13.8537Z"
            fill="#FDFDFD" />
        <path
            d="M127.021 29.4949C127.914 29.4949 128.678 29.8115 129.311 30.4446C129.944 31.0777 130.26 31.8411 130.26 32.7349C130.26 33.6287 129.944 34.3921 129.311 35.0252C128.678 35.6583 127.914 35.9749 127.021 35.9749C126.127 35.9749 125.363 35.6583 124.73 35.0252C124.097 34.3921 123.781 33.6287 123.781 32.7349C123.781 31.8411 124.097 31.0777 124.73 30.4446C125.363 29.8115 126.127 29.4949 127.021 29.4949Z"
            fill="#0044F1" />
        <path
            d="M147.067 8.04407C148.929 8.04407 150.679 8.39786 152.318 9.10544C153.993 9.81302 155.446 10.7813 156.675 12.0102C157.904 13.2392 158.872 14.6916 159.58 16.3674C160.287 18.0061 160.641 19.7564 160.641 21.6184V34.8576H154.887V32.7349C153.77 33.5169 152.541 34.1314 151.2 34.5783C149.86 35.0252 148.463 35.2487 147.011 35.2487C145.149 35.2487 143.38 34.8949 141.704 34.1873C140.065 33.4797 138.631 32.5114 137.402 31.2825C136.174 30.0535 135.205 28.6197 134.498 26.9811C133.79 25.3053 133.436 23.5363 133.436 21.6743C133.436 19.8122 133.79 18.0619 134.498 16.4233C135.205 14.7475 136.174 13.2951 137.402 12.0661C138.631 10.8371 140.065 9.86888 141.704 9.1613C143.38 8.45372 145.149 8.09993 147.011 8.09993L147.067 8.04407ZM139.19 21.6743C139.19 22.7543 139.395 23.7784 139.805 24.7467C140.214 25.7149 140.773 26.5529 141.48 27.2605C142.188 27.968 143.026 28.5266 143.994 28.9363C144.962 29.3459 145.987 29.5508 147.067 29.5508C148.147 29.5508 149.171 29.3459 150.139 28.9363C151.107 28.5266 151.945 27.968 152.653 27.2605C153.36 26.5529 153.919 25.7149 154.329 24.7467C154.738 23.7784 154.943 22.7543 154.943 21.6743C154.943 20.5943 154.738 19.5702 154.329 18.6019C153.919 17.6336 153.36 16.7957 152.653 16.0881C151.945 15.3806 151.107 14.8219 150.139 14.4123C149.171 14.0026 148.147 13.7978 147.067 13.7978C145.987 13.7978 144.962 14.0026 143.994 14.4123C143.026 14.8219 142.188 15.3806 141.48 16.0881C140.773 16.7957 140.214 17.6336 139.805 18.6019C139.395 19.5702 139.19 20.5943 139.19 21.6743Z"
            fill="#0044F1" />
        <path
            d="M169.408 8.49096V34.9135H163.766V8.49096H169.408ZM169.408 5.64202H163.766V0H169.408V5.64202Z"
            fill="#0044F1" />
    </g>
    <defs>
        <clipPath id="clip0_148_62660">
            <rect width="169.408" height="35.9992" fill="white" />
        </clipPath>
    </defs>
</svg>
    