<svg
    width="113"
    height="24"
    viewBox="0 0 113 24"
    fill="none"
    xmlns="http://www.w3.org/2000/svg"
>
    <g clipPath="url(#clip0_633_5311)">
        <path
            d="M10.2421 0.0744852V15.3814C10.2421 16.5235 10.0186 17.6036 9.57172 18.6215C9.14963 19.6147 8.56615 20.4837 7.82129 21.2286C7.07643 21.9734 6.19501 22.5693 5.17703 23.0162C4.18388 23.4383 3.11625 23.6494 1.97413 23.6494C1.27892 23.6494 0.620962 23.5749 0.000244141 23.4259V19.3292C0.596133 19.6271 1.25409 19.7761 1.97413 19.7761C2.57002 19.7761 3.12866 19.6643 3.65007 19.4409C4.1963 19.1926 4.66804 18.8698 5.0653 18.4726C5.46256 18.0753 5.77292 17.616 5.99638 17.0946C6.24467 16.5483 6.36881 15.9773 6.36881 15.3814V0.0744852H10.2421Z"
            fill="#000014"
        />
        <path
            d="M21.4534 5.40025C22.6949 5.40025 23.8618 5.63612 24.9543 6.10786C26.0716 6.57961 27.0399 7.22516 27.8592 8.0445C28.6786 8.86385 29.3241 9.83217 29.7959 10.9495C30.2676 12.0419 30.5035 13.2089 30.5035 14.4503C30.5035 15.6917 30.2676 16.8711 29.7959 17.9884C29.3241 19.0809 28.6786 20.0368 27.8592 20.8561C27.0399 21.6755 26.0716 22.321 24.9543 22.7928C23.8618 23.2645 22.6949 23.5004 21.4534 23.5004C20.212 23.5004 19.0326 23.2645 17.9153 22.7928C16.8229 22.321 15.867 21.6755 15.0476 20.8561C14.2283 20.0368 13.5827 19.0809 13.111 17.9884C12.6392 16.8711 12.4034 15.6917 12.4034 14.4503C12.4034 13.2089 12.6392 12.0419 13.111 10.9495C13.5827 9.83217 14.2283 8.86385 15.0476 8.0445C15.867 7.22516 16.8229 6.57961 17.9153 6.10786C19.0326 5.63612 20.212 5.40025 21.4534 5.40025ZM16.2021 14.4876C16.2021 15.2076 16.3387 15.8904 16.6118 16.5359C16.8849 17.1815 17.2574 17.7401 17.7291 18.2119C18.2009 18.6836 18.7595 19.056 19.4051 19.3292C20.0506 19.6023 20.7334 19.7388 21.4534 19.7388C22.1735 19.7388 22.8562 19.6023 23.5018 19.3292C24.1473 19.056 24.706 18.6836 25.1777 18.2119C25.6495 17.7401 26.0219 17.1815 26.295 16.5359C26.5681 15.8904 26.7047 15.2076 26.7047 14.4876C26.7047 13.7675 26.5681 13.0847 26.295 12.4392C26.0219 11.7936 25.6495 11.235 25.1777 10.7632C24.706 10.2915 24.1473 9.91907 23.5018 9.64596C22.8562 9.37284 22.1735 9.23628 21.4534 9.23628C20.7334 9.23628 20.0506 9.37284 19.4051 9.64596C18.7595 9.91907 18.2009 10.2915 17.7291 10.7632C17.2574 11.235 16.8849 11.7936 16.6118 12.4392C16.3387 13.0847 16.2021 13.7675 16.2021 14.4876Z"
            fill="#000014"
        />
        <path
            d="M41.6744 5.43749C42.9158 5.43749 44.0828 5.67336 45.1752 6.14511C46.2925 6.61685 47.2608 7.2624 48.0802 8.08175C48.8995 8.90109 49.5451 9.86941 50.0168 10.9867C50.4886 12.0792 50.7244 13.2461 50.7244 14.4876C50.7244 15.729 50.4886 16.9084 50.0168 18.0256C49.5451 19.1181 48.8995 20.074 48.0802 20.8934C47.2608 21.7127 46.2925 22.3583 45.1752 22.83C44.0828 23.3018 42.9158 23.5376 41.6744 23.5376C40.4329 23.5376 39.2536 23.3018 38.1363 22.83C37.0438 22.3583 36.0879 21.7127 35.2686 20.8934C34.4492 20.074 33.8037 19.1181 33.3319 18.0256C32.8602 16.9084 32.6243 15.729 32.6243 14.4876V0H36.4603V7.07618C37.2052 6.55478 38.0246 6.14511 38.9184 5.84716C39.8122 5.54922 40.7433 5.40025 41.7116 5.40025L41.6744 5.43749ZM36.4231 14.5248C36.4231 15.2448 36.5597 15.9276 36.8328 16.5732C37.1059 17.2187 37.4783 17.7774 37.9501 18.2491C38.4218 18.7209 38.9805 19.0933 39.626 19.3664C40.2715 19.6395 40.9543 19.7761 41.6744 19.7761C42.3944 19.7761 43.0772 19.6395 43.7227 19.3664C44.3683 19.0933 44.9269 18.7209 45.3987 18.2491C45.8704 17.7774 46.2429 17.2187 46.516 16.5732C46.7891 15.9276 46.9256 15.2448 46.9256 14.5248C46.9256 13.8048 46.7891 13.122 46.516 12.4764C46.2429 11.8309 45.8704 11.2722 45.3987 10.8005C44.9269 10.3287 44.3683 9.95631 43.7227 9.6832C43.0772 9.41008 42.3944 9.27353 41.6744 9.27353C40.9543 9.27353 40.2715 9.41008 39.626 9.6832C38.9805 9.95631 38.4218 10.3287 37.9501 10.8005C37.4783 11.2722 37.1059 11.8309 36.8328 12.4764C36.5597 13.122 36.4231 13.8048 36.4231 14.5248Z"
            fill="#000014"
        />
        <path
            d="M64.2416 5.69819C65.93 6.12028 67.3701 6.95204 68.5618 8.19348C69.7785 9.41008 70.5606 10.875 70.9081 12.5882C70.9578 12.8861 70.995 13.1965 71.0199 13.5192C71.0695 13.8172 71.0944 14.1275 71.0944 14.4503C71.0944 14.7731 71.0695 15.0959 71.0199 15.4186C70.995 15.7166 70.9578 16.0145 70.9081 16.3125H57.1282C57.5006 17.3056 58.1214 18.1125 58.9904 18.7333C59.8842 19.354 60.8898 19.6643 62.0071 19.6643C62.7519 19.6643 63.4844 19.503 64.2044 19.1802V23.2024C63.4595 23.4011 62.7147 23.5004 61.9698 23.5004C60.8773 23.5004 59.8345 23.3266 58.8414 22.979C57.8731 22.6065 56.9917 22.0976 56.1971 21.452C55.4274 20.8065 54.7695 20.0492 54.2233 19.1802C53.7018 18.2864 53.3294 17.3304 53.106 16.3125C53.0563 16.0145 53.0066 15.7166 52.957 15.4186C52.9322 15.0959 52.9197 14.7731 52.9197 14.4503C52.9197 14.1275 52.9322 13.8172 52.957 13.5192C53.0066 13.1965 53.0563 12.8861 53.106 12.5882C53.3294 11.5702 53.7018 10.6267 54.2233 9.75768C54.7695 8.86385 55.4274 8.09416 56.1971 7.44861C56.9917 6.80307 57.8731 6.30649 58.8414 5.95889C59.8345 5.58646 60.8773 5.40025 61.9698 5.40025C62.6898 5.40025 63.4223 5.49956 64.1672 5.69819H64.2416ZM66.8859 12.6254C66.6376 11.9799 66.2776 11.4088 65.8058 10.9122C65.3589 10.4156 64.8251 10.0308 64.2044 9.75768C63.4844 9.43491 62.7519 9.27353 62.0071 9.27353C60.8898 9.27353 59.8842 9.58388 58.9904 10.2046C58.1214 10.8253 57.5006 11.6323 57.1282 12.6254H66.9231H66.8859Z"
            fill="#000014"
        />
        <path
            d="M80.4403 9.23628C79.4968 9.28594 78.6899 9.64596 78.0195 10.3163C77.374 10.9867 77.0512 11.7936 77.0512 12.7371V23.2397H73.1779V12.7371C73.1779 11.893 73.3145 11.086 73.5876 10.3163C73.8607 9.54664 74.2332 8.85144 74.7049 8.23072C75.2015 7.61 75.7725 7.07618 76.4181 6.62927C77.0885 6.18235 77.8209 5.84716 78.6154 5.6237C79.1617 5.47473 79.7576 5.40025 80.4031 5.40025L80.4403 9.23628Z"
            fill="#000014"
        />
        <path
            d="M84.6852 19.6643C85.2811 19.6643 85.7901 19.8754 86.2121 20.2975C86.6342 20.7196 86.8453 21.2286 86.8453 21.8244C86.8453 22.4203 86.6342 22.9293 86.2121 23.3514C85.7901 23.7735 85.2811 23.9845 84.6852 23.9845C84.0893 23.9845 83.5803 23.7735 83.1582 23.3514C82.7361 22.9293 82.5251 22.4203 82.5251 21.8244C82.5251 21.2286 82.7361 20.7196 83.1582 20.2975C83.5803 19.8754 84.0893 19.6643 84.6852 19.6643Z"
            fill="#0044F1"
        />
        <path
            d="M98.0499 5.363C99.2914 5.363 100.458 5.59887 101.551 6.07062C102.668 6.54237 103.636 7.18791 104.456 8.00726C105.275 8.82661 105.921 9.79493 106.392 10.9122C106.864 12.0047 107.1 13.1716 107.1 14.4131V23.2397H103.264V21.8244C102.519 22.3458 101.7 22.7555 100.806 23.0535C99.9121 23.3514 98.981 23.5004 98.0127 23.5004C96.7712 23.5004 95.5919 23.2645 94.4746 22.7928C93.3821 22.321 92.4262 21.6755 91.6069 20.8561C90.7875 20.0368 90.142 19.0809 89.6702 17.9884C89.1985 16.8711 88.9626 15.6917 88.9626 14.4503C88.9626 13.2089 89.1985 12.0419 89.6702 10.9495C90.142 9.83217 90.7875 8.86385 91.6069 8.0445C92.4262 7.22516 93.3821 6.57961 94.4746 6.10786C95.5919 5.63612 96.7712 5.40025 98.0127 5.40025L98.0499 5.363ZM92.7986 14.4503C92.7986 15.1703 92.9352 15.8531 93.2083 16.4987C93.4814 17.1442 93.8539 17.7029 94.3256 18.1746C94.7973 18.6464 95.356 19.0188 96.0015 19.2919C96.6471 19.565 97.3299 19.7016 98.0499 19.7016C98.77 19.7016 99.4527 19.565 100.098 19.2919C100.744 19.0188 101.302 18.6464 101.774 18.1746C102.246 17.7029 102.618 17.1442 102.892 16.4987C103.165 15.8531 103.301 15.1703 103.301 14.4503C103.301 13.7303 103.165 13.0475 102.892 12.4019C102.618 11.7564 102.246 11.1978 101.774 10.726C101.302 10.2543 100.744 9.88183 100.098 9.60871C99.4527 9.3356 98.77 9.19904 98.0499 9.19904C97.3299 9.19904 96.6471 9.3356 96.0015 9.60871C95.356 9.88183 94.7973 10.2543 94.3256 10.726C93.8539 11.1978 93.4814 11.7564 93.2083 12.4019C92.9352 13.0475 92.7986 13.7303 92.7986 14.4503Z"
            fill="#0044F1"
        />
        <path
            d="M112.945 5.66095V23.2769H109.184V5.66095H112.945ZM112.945 3.76155H109.184V0H112.945V3.76155Z"
            fill="#0044F1"
        />
    </g>
    <defs>
        <clipPath id="clip0_633_5311">
            <rect width="112.945" height="24.0008" fill="white" />
        </clipPath>
    </defs>
</svg>